# xmcd
#
# Track frame offsets: 
#        150
#        13617
#        34650
#        49350
#        62775
#        82500
#        95100
#        112200
#        128475
#        142825
#
# Disc length: 2111 seconds
#
# Revision: 2
# Processed by: cddbd v1.5.2PL0 Copyright (c) Steve Scherf et al.
# Submitted via: ExactAudioCopy v0.99pb5
#
DISCID=7e083d0a
DTITLE=Jimmy McPartland - That Happy Dixieland Jazz
DYEAR=1959
DGENRE=Jazz
TTITLE0=High Society
TTITLE1=That's a Plenty
TTITLE2=Way Down Yonder In New Orleans
TTITLE3=Muskrat Ramble
TTITLE4=When The Saints Go Marching In
TTITLE5=Darktown Strutter's Ball
TTITLE6=Original Dixieland One-Step
TTITLE7=Fidgety Feet
TTITLE8=South Rampart Street Parade
TTITLE9=Farewell Blues
EXTD=YEAR: 1959
EXTT0=
EXTT1=
EXTT2=
EXTT3=
EXTT4=
EXTT5=
EXTT6=
EXTT7=
EXTT8=
EXTT9=
PLAYORDER=
